<svg width="36" height="51" viewBox="0 0 36 51" fill="none" xmlns="http://www.w3.org/2000/svg">
<ellipse cx="17.8578" cy="49.7495" rx="6.45935" ry="1.16541" fill="#B3C4D0"/>
<path d="M17.8574 0C8.01073 0 0 7.80874 0 17.406C0 26.6442 16.2024 48.2279 16.8922 49.1419L17.5361 49.9959C17.6114 50.0963 17.7313 50.155 17.8574 50.155C17.9855 50.155 18.1046 50.0963 18.1807 49.9959L18.8242 49.1419C19.5145 48.2279 35.7164 26.6442 35.7164 17.406C35.7164 7.80874 27.7044 0 17.8574 0ZM17.8574 11.1712C21.3855 11.1712 24.2544 13.9675 24.2544 17.406C24.2544 20.8427 21.3854 23.6408 17.8574 23.6408C14.3314 23.6408 11.4604 20.8427 11.4604 17.406C11.4604 13.9675 14.3313 11.1712 17.8574 11.1712Z" fill="#FFD000"/>
<path d="M10.1776 9.35727H26.6909V25.0775H10.1776V9.35727Z" fill="#FFD000"/>
<path d="M30.2063 13.4612C30.1283 13.2353 29.9864 13.0369 29.7979 12.8901C29.6094 12.7432 29.3824 12.6542 29.1443 12.6338L22.1178 11.6089L18.9689 5.22456C18.8678 5.01578 18.7099 4.8397 18.5133 4.7165C18.3168 4.5933 18.0895 4.52795 17.8575 4.52795C17.6255 4.52795 17.3982 4.5933 17.2017 4.7165C17.0051 4.8397 16.8472 5.01578 16.7461 5.22456L13.5972 11.5965L6.57073 12.6338C6.34218 12.6663 6.12731 12.7622 5.95051 12.9106C5.77371 13.0591 5.64205 13.2541 5.57048 13.4735C5.50496 13.688 5.49908 13.9163 5.55347 14.1338C5.60786 14.3514 5.72046 14.55 5.8792 14.7084L10.9792 19.6479L9.74436 26.662C9.70028 26.8935 9.72336 27.1328 9.81088 27.3516C9.89841 27.5704 10.0467 27.7596 10.2383 27.8969C10.425 28.0304 10.6453 28.1092 10.8743 28.1245C11.1034 28.1397 11.3321 28.0909 11.5349 27.9833L17.8575 24.6862L24.1554 27.9957C24.3287 28.0935 24.5244 28.1445 24.7234 28.1439C24.985 28.1448 25.2401 28.0626 25.452 27.9092C25.6436 27.772 25.7919 27.5828 25.8794 27.364C25.9669 27.1452 25.99 26.9059 25.9459 26.6744L24.7111 19.6603L29.8111 14.7208C29.9894 14.5697 30.1212 14.3712 30.1911 14.1482C30.2611 13.9252 30.2663 13.687 30.2063 13.4612ZM22.6118 18.4007C22.4669 18.5408 22.3586 18.7142 22.2962 18.9057C22.2338 19.0973 22.2192 19.3012 22.2537 19.4997L23.1428 24.6739L18.4996 22.2041C18.321 22.109 18.1217 22.0592 17.9192 22.0592C17.7168 22.0592 17.5175 22.109 17.3388 22.2041L12.6957 24.6739L13.5848 19.4997C13.6193 19.3012 13.6047 19.0973 13.5423 18.9057C13.4799 18.7142 13.3715 18.5408 13.2267 18.4007L9.52208 14.6961L14.7209 13.9428C14.921 13.915 15.1111 13.8385 15.2748 13.7201C15.4384 13.6017 15.5705 13.4449 15.6594 13.2636L17.8575 8.55873L20.1791 13.276C20.268 13.4573 20.4001 13.614 20.5637 13.7324C20.7274 13.8508 20.9175 13.9273 21.1176 13.9551L26.3164 14.7084L22.6118 18.4007Z" fill="#0047BD"/>
</svg>
